<svg xmlns="http://www.w3.org/2000/svg" viewBox="0 0 387 81" fill="none">
    <g clip-path="url(#clip0_6_171)">
        <path d="M103.41 18.8H110.25V56.25H103.41V18.8ZM110.79 36.46L124.65 18.8H132.65L118.65 36.46L132.65 56.25H124.65L110.79 36.46Z" fill="#090909" />
        <path
            d="M137.81 54.91C135.788 53.7198 134.139 51.9879 133.05 49.91C131.923 47.7509 131.353 45.345 131.39 42.91C131.367 40.4766 131.937 38.0741 133.05 35.91C134.125 33.8007 135.775 32.0393 137.81 30.83C140.056 29.6029 142.575 28.9598 145.135 28.9598C147.695 28.9598 150.214 29.6029 152.46 30.83C154.496 32.0417 156.149 33.8022 157.23 35.91C158.335 38.0767 158.901 40.4779 158.88 42.91C158.916 45.3437 158.349 47.7484 157.23 49.91C156.134 51.9865 154.483 53.7175 152.46 54.91C150.214 56.1371 147.695 56.7802 145.135 56.7802C142.575 56.7802 140.056 56.1371 137.81 54.91ZM150.24 49C151.542 47.2412 152.196 45.0859 152.09 42.9C152.2 40.6889 151.547 38.5072 150.24 36.72C149.605 35.989 148.821 35.4027 147.941 35.001C147.06 34.5992 146.103 34.3913 145.135 34.3913C144.167 34.3913 143.21 34.5992 142.329 35.001C141.449 35.4027 140.665 35.989 140.03 36.72C138.723 38.5072 138.07 40.6889 138.18 42.9C138.065 45.0823 138.708 47.2372 140 49C140.64 49.7224 141.426 50.3007 142.306 50.6968C143.186 51.0929 144.14 51.2977 145.105 51.2977C146.07 51.2977 147.024 51.0929 147.904 50.6968C148.784 50.3007 149.57 49.7224 150.21 49H150.24Z"
            fill="#090909"
        />
        <path
            d="M200.37 32.31C202.123 34.47 203 37.4933 203 41.38V56.25H196.37V41.86C196.37 39.33 195.98 37.47 195.19 36.3C194.758 35.6954 194.175 35.2142 193.5 34.9037C192.825 34.5933 192.08 34.4645 191.34 34.53C190.577 34.4757 189.813 34.6107 189.115 34.923C188.418 35.2353 187.808 35.7152 187.34 36.32C186.363 37.8194 185.893 39.5933 186 41.38V56.25H179.36V41.86C179.36 39.33 178.95 37.47 178.13 36.3C177.683 35.6986 177.091 35.2207 176.409 34.9111C175.727 34.6015 174.977 34.4703 174.23 34.53C173.248 34.5038 172.273 34.6966 171.376 35.0945C170.478 35.4923 169.68 36.0852 169.04 36.83V56.25H162.4V29.5H168.08L168.29 31.64C170.572 29.973 173.324 29.0731 176.15 29.07C179.583 29.07 182.133 30.3033 183.8 32.77C184.759 31.5492 186.016 30.5953 187.45 30C189.029 29.3236 190.732 28.9831 192.45 29C195.997 29.0467 198.637 30.15 200.37 32.31Z"
            fill="#090909"
        />
        <path
            d="M228.32 31C230.139 32.2428 231.568 33.9767 232.44 36C233.357 38.204 233.83 40.5677 233.83 42.955C233.83 45.3423 233.357 47.706 232.44 49.91C231.567 51.9327 230.138 53.6664 228.32 54.91C226.389 56.1925 224.108 56.8457 221.79 56.78C220.41 56.8062 219.033 56.6379 217.7 56.28C216.539 55.916 215.444 55.3655 214.46 54.65V69.2H207.83V29.5H213.18L213.88 31.96C214.944 31.0446 216.154 30.3144 217.46 29.8C218.845 29.2879 220.314 29.0403 221.79 29.07C224.114 29.0227 226.395 29.697 228.32 31ZM225.38 49C226.561 47.1918 227.142 45.0573 227.04 42.9C227.143 40.7426 226.562 38.6076 225.38 36.8C224.867 36.0624 224.177 35.4653 223.373 35.0635C222.57 34.6617 221.678 34.4679 220.78 34.5C219.826 34.4336 218.87 34.6043 217.997 34.9969C217.125 35.3894 216.363 35.9917 215.78 36.75C214.584 38.5702 214.003 40.7254 214.12 42.9C214.003 45.0747 214.584 47.2298 215.78 49.05C216.363 49.8083 217.125 50.4106 217.997 50.8031C218.87 51.1957 219.826 51.3664 220.78 51.3C221.678 51.3321 222.57 51.1383 223.373 50.7365C224.177 50.3347 224.867 49.7376 225.38 49Z"
            fill="#090909"
        />
        <path
            d="M243.25 54.91C241.227 53.7175 239.576 51.9865 238.48 49.91C237.361 47.7484 236.794 45.3437 236.83 42.91C236.809 40.4779 237.375 38.0767 238.48 35.91C239.561 33.8022 241.214 32.0417 243.25 30.83C245.496 29.6029 248.015 28.9598 250.575 28.9598C253.135 28.9598 255.654 29.6029 257.9 30.83C259.936 32.0417 261.589 33.8022 262.67 35.91C263.775 38.0767 264.341 40.4779 264.32 42.91C264.356 45.3437 263.789 47.7484 262.67 49.91C261.574 51.9865 259.923 53.7175 257.9 54.91C255.654 56.1371 253.135 56.7802 250.575 56.7802C248.015 56.7802 245.496 56.1371 243.25 54.91ZM255.68 49C256.982 47.2412 257.636 45.0859 257.53 42.9C257.64 40.6889 256.987 38.5072 255.68 36.72C255.045 35.989 254.261 35.4027 253.381 35.001C252.5 34.5992 251.543 34.3913 250.575 34.3913C249.607 34.3913 248.65 34.5992 247.769 35.001C246.889 35.4027 246.105 35.989 245.47 36.72C244.163 38.5072 243.51 40.6889 243.62 42.9C243.514 45.0859 244.168 47.2412 245.47 49C246.11 49.7224 246.896 50.3007 247.776 50.6968C248.656 51.0929 249.61 51.2977 250.575 51.2977C251.54 51.2977 252.494 51.0929 253.374 50.6968C254.254 50.3007 255.04 49.7224 255.68 49Z"
            fill="#090909"
        />
        <path
            d="M288.88 32.39C290.587 34.5967 291.443 37.5733 291.45 41.32V56.25H284.81V41.86C284.951 39.9291 284.512 38.0002 283.55 36.32C283.086 35.7111 282.477 35.2283 281.778 34.9156C281.079 34.6029 280.313 34.4703 279.55 34.53C278.597 34.5137 277.653 34.712 276.788 35.1102C275.922 35.5083 275.157 36.0961 274.55 36.83V56.25H267.91V29.5H274.12L274.23 31.37C276.327 29.884 278.83 29.0808 281.4 29.07C284.65 29.07 287.17 30.18 288.88 32.39Z"
            fill="#090909"
        />
        <path
            d="M301.26 54.89C299.156 53.7126 297.445 51.9425 296.34 49.8C295.234 47.6058 294.675 45.1768 294.71 42.72C294.677 40.3462 295.209 37.9985 296.26 35.87C297.263 33.8315 298.819 32.1162 300.75 30.92C302.86 29.6493 305.288 29.0075 307.75 29.07C309.965 29.0003 312.157 29.5362 314.09 30.62C315.77 31.6063 317.128 33.0581 318 34.8C318.891 36.6304 319.34 38.6445 319.31 40.68C319.289 41.9047 319.145 43.1242 318.88 44.32H301.61C301.802 46.3756 302.802 48.2711 304.39 49.59C305.94 50.767 307.845 51.3807 309.79 51.33C312.608 51.3434 315.375 50.5824 317.79 49.13L318.11 54.75C316.844 55.4065 315.5 55.9004 314.11 56.22C312.493 56.6089 310.833 56.7969 309.17 56.78C306.413 56.8557 303.685 56.2038 301.26 54.89ZM312.58 39.83C312.599 38.5043 312.184 37.2088 311.4 36.14C310.972 35.5936 310.416 35.1609 309.781 34.8801C309.146 34.5993 308.452 34.4791 307.76 34.53C307.031 34.4915 306.302 34.599 305.615 34.8463C304.928 35.0936 304.297 35.4756 303.76 35.97C302.726 37.0303 302.03 38.3737 301.76 39.83H312.58Z"
            fill="#090909"
        />
        <path
            d="M343.82 32.39C345.527 34.5967 346.38 37.5733 346.38 41.32V56.25H339.75V41.86C339.891 39.9291 339.452 38.0002 338.49 36.32C338.026 35.7111 337.417 35.2283 336.718 34.9156C336.019 34.6029 335.253 34.4703 334.49 34.53C333.537 34.5137 332.593 34.712 331.728 35.1102C330.862 35.5083 330.097 36.0961 329.49 36.83V56.25H322.85V29.5H329L329.11 31.37C331.203 29.8854 333.704 29.0822 336.27 29.07C339.59 29.07 342.107 30.1767 343.82 32.39Z"
            fill="#090909"
        />
        <path
            d="M354.3 54.73C353.094 53.3665 352.445 51.5998 352.48 49.78V35H348.68L349.27 29.54H352.48V23.62L359.12 22.92V29.5H365V35H359.12V47.05C359.077 48.056 359.158 49.0635 359.36 50.05C359.42 50.2998 359.543 50.5298 359.718 50.7174C359.894 50.905 360.115 51.0437 360.36 51.12C361.282 51.3202 362.227 51.4009 363.17 51.36H365L364.41 56.81H359.65C358.66 56.8764 357.668 56.7245 356.744 56.3651C355.819 56.0056 354.985 55.4475 354.3 54.73Z"
            fill="#090909"
        />
        <path
            d="M371.18 56.3C369.681 55.9476 368.221 55.4485 366.82 54.81L367.41 49.13C368.736 49.9413 370.144 50.6116 371.61 51.13C372.897 51.5737 374.249 51.8001 375.61 51.8C378.323 51.8 379.677 50.9067 379.67 49.12C379.692 48.69 379.605 48.2613 379.418 47.8734C379.232 47.4855 378.95 47.1508 378.6 46.9C377.391 46.1427 376.099 45.5254 374.75 45.06C372.628 44.3738 370.671 43.2572 369 41.78C368.362 41.1192 367.867 40.3344 367.546 39.4743C367.224 38.6142 367.082 37.6971 367.13 36.78C367.102 35.6951 367.329 34.6187 367.793 33.6375C368.257 32.6562 368.944 31.7974 369.8 31.13C371.883 29.6112 374.426 28.8588 377 29C379.9 28.9653 382.759 29.6819 385.3 31.08L384.71 36.75C383.507 35.912 382.224 35.1952 380.88 34.61C379.686 34.1097 378.404 33.8547 377.11 33.86C376.175 33.8066 375.247 34.0518 374.46 34.56C374.151 34.79 373.904 35.0933 373.742 35.4424C373.58 35.7916 373.507 36.1756 373.53 36.56C373.501 37.1641 373.701 37.757 374.09 38.22C374.536 38.7035 375.073 39.0943 375.67 39.37C376.34 39.71 377.47 40.18 379.04 40.79C381.111 41.4492 383.017 42.5437 384.63 44C385.814 45.3024 386.433 47.0217 386.35 48.78C386.404 49.9093 386.185 51.0349 385.709 52.0606C385.234 53.0863 384.517 53.9817 383.62 54.67C381.8 56.0633 379.213 56.7567 375.86 56.75C374.288 56.7742 372.718 56.6233 371.18 56.3Z"
            fill="#090909"
        />
        <path d="M232.27 77.6H228.74L227.91 80H226.34L229.73 70.49H231.28L234.66 80H233.1L232.27 77.6ZM231.77 76.2L230.51 72.59L229.23 76.2H231.77Z" fill="#090909" />
        <path d="M236.87 70.46H238.48L242.75 77V70.46H244.34V80H243L238.41 73.11V80H236.83L236.87 70.46Z" fill="#090909" />
        <path
            d="M247.55 70.46H251.09C251.938 70.4445 252.777 70.6404 253.53 71.03C254.231 71.4039 254.808 71.9737 255.19 72.67C255.604 73.4512 255.811 74.3259 255.79 75.21C255.814 76.0944 255.607 76.9697 255.19 77.75C254.811 78.451 254.233 79.0249 253.53 79.4C252.777 79.7895 251.938 79.9854 251.09 79.97H247.55V70.46ZM251.09 78.55C251.502 78.5798 251.915 78.5151 252.298 78.3609C252.681 78.2066 253.024 77.9669 253.3 77.66C253.795 76.9388 254.06 76.0846 254.06 75.21C254.06 74.3353 253.795 73.4812 253.3 72.76C253.022 72.4548 252.679 72.2163 252.297 72.0622C251.914 71.9081 251.502 71.8424 251.09 71.87H249.09V78.55H251.09Z"
            fill="#090909"
        />
        <path
            d="M263.62 80C263.128 79.9009 262.648 79.7466 262.19 79.54L262.38 77.87C263.372 78.3819 264.465 78.6687 265.58 78.71C266.014 78.7353 266.446 78.6309 266.82 78.41C266.966 78.314 267.085 78.1813 267.164 78.0251C267.243 77.8689 267.279 77.6948 267.27 77.52C267.283 77.2493 267.197 76.9832 267.03 76.77C266.84 76.5564 266.604 76.3888 266.34 76.28C265.891 76.0827 265.43 75.9124 264.96 75.77C264.454 75.611 263.965 75.4034 263.5 75.15C263.125 74.9424 262.806 74.6474 262.57 74.29C262.324 73.8984 262.202 73.4419 262.22 72.98C262.209 72.6129 262.284 72.2484 262.439 71.9152C262.593 71.582 262.823 71.2892 263.11 71.06C263.847 70.5227 264.75 70.2608 265.66 70.32C266.198 70.32 266.735 70.3804 267.26 70.5C267.74 70.6064 268.208 70.757 268.66 70.95L268.49 72.58C268.007 72.3348 267.501 72.1372 266.98 71.99C266.517 71.8673 266.039 71.8035 265.56 71.8C265.122 71.7739 264.686 71.8709 264.3 72.08C264.155 72.1681 264.037 72.2935 263.958 72.4431C263.879 72.5927 263.842 72.7609 263.85 72.93C263.842 73.1739 263.924 73.4122 264.08 73.6C264.247 73.7953 264.46 73.9464 264.7 74.04C265.079 74.2011 265.466 74.3413 265.86 74.46C266.731 74.6873 267.548 75.0887 268.26 75.64C268.516 75.8706 268.717 76.1556 268.848 76.4739C268.98 76.7923 269.039 77.1361 269.02 77.48C269.026 77.8446 268.954 78.2062 268.81 78.5408C268.665 78.8753 268.45 79.1751 268.18 79.42C267.359 80.0244 266.345 80.3056 265.33 80.21C264.754 80.2057 264.18 80.1352 263.62 80Z"
            fill="#090909"
        />
        <path
            d="M273.27 79.54C272.562 79.1342 271.986 78.5337 271.61 77.81C271.192 77.0081 270.982 76.1141 271 75.21C270.985 74.3062 271.194 73.4127 271.61 72.61C271.992 71.8905 272.567 71.2915 273.27 70.88C274.014 70.48 274.845 70.2706 275.69 70.2706C276.535 70.2706 277.366 70.48 278.11 70.88C278.813 71.2915 279.388 71.8905 279.77 72.61C280.182 73.4136 280.389 74.307 280.37 75.21C280.391 76.1132 280.184 77.0072 279.77 77.81C279.394 78.5337 278.818 79.1342 278.11 79.54C277.369 79.9497 276.537 80.1647 275.69 80.1647C274.843 80.1647 274.011 79.9497 273.27 79.54ZM277.92 77.68C278.428 76.9564 278.7 76.094 278.7 75.21C278.7 74.326 278.428 73.4636 277.92 72.74C277.631 72.439 277.284 72.1996 276.9 72.0361C276.516 71.8725 276.102 71.7882 275.685 71.7882C275.268 71.7882 274.854 71.8725 274.47 72.0361C274.086 72.1996 273.739 72.439 273.45 72.74C272.937 73.4613 272.661 74.3247 272.661 75.21C272.661 76.0953 272.937 76.9587 273.45 77.68C273.738 77.9835 274.084 78.2252 274.469 78.3904C274.853 78.5556 275.267 78.6408 275.685 78.6408C276.103 78.6408 276.517 78.5556 276.901 78.3904C277.286 78.2252 277.632 77.9835 277.92 77.68Z"
            fill="#090909"
        />
        <path d="M283 70.46H284.58V78.55H288.65V80H283V70.46Z" fill="#090909" />
        <path
            d="M291.59 79C290.882 78.1198 290.525 77.008 290.59 75.88V70.46H292.16V75.46C292.116 76.2706 292.288 77.0782 292.66 77.8C292.897 78.0586 293.185 78.265 293.506 78.4062C293.827 78.5475 294.174 78.6204 294.525 78.6204C294.876 78.6204 295.223 78.5475 295.544 78.4062C295.865 78.265 296.153 78.0586 296.39 77.8C296.762 77.0782 296.934 76.2706 296.89 75.46V70.46H298.46V75.91C298.525 77.038 298.168 78.1498 297.46 79.03C296.652 79.758 295.603 80.1609 294.515 80.1609C293.427 80.1609 292.378 79.758 291.57 79.03L291.59 79Z"
            fill="#090909"
        />
        <path d="M303.43 72H300.71V70.5H307.71V72H305V80H303.43V72Z" fill="#090909" />
        <path d="M310.06 70.46H311.64V80H310.06V70.46Z" fill="#090909" />
        <path
            d="M316.55 79.54C315.842 79.1342 315.266 78.5337 314.89 77.81C314.476 77.0072 314.269 76.1132 314.29 75.21C314.271 74.307 314.478 73.4136 314.89 72.61C315.272 71.8905 315.847 71.2915 316.55 70.88C317.294 70.48 318.125 70.2706 318.97 70.2706C319.815 70.2706 320.646 70.48 321.39 70.88C322.093 71.2915 322.668 71.8905 323.05 72.61C323.462 73.4136 323.669 74.307 323.65 75.21C323.671 76.1132 323.464 77.0072 323.05 77.81C322.674 78.5337 322.098 79.1342 321.39 79.54C320.649 79.9497 319.817 80.1647 318.97 80.1647C318.123 80.1647 317.291 79.9497 316.55 79.54ZM321.2 77.68C321.708 76.9564 321.98 76.094 321.98 75.21C321.98 74.326 321.708 73.4636 321.2 72.74C320.911 72.439 320.564 72.1996 320.18 72.0361C319.796 71.8725 319.382 71.7882 318.965 71.7882C318.548 71.7882 318.134 71.8725 317.75 72.0361C317.366 72.1996 317.019 72.439 316.73 72.74C316.217 73.4613 315.941 74.3247 315.941 75.21C315.941 76.0953 316.217 76.9587 316.73 77.68C317.018 77.9835 317.364 78.2252 317.749 78.3904C318.133 78.5556 318.547 78.6408 318.965 78.6408C319.383 78.6408 319.797 78.5556 320.181 78.3904C320.566 78.2252 320.912 77.9835 321.2 77.68Z"
            fill="#090909"
        />
        <path d="M326.3 70.46H327.9L332.18 77V70.46H333.77V80H332.46L327.88 73.11V80H326.3V70.46Z" fill="#090909" />
        <path
            d="M338 80C337.511 79.9011 337.034 79.7468 336.58 79.54L336.77 77.87C337.758 78.3817 338.848 78.6686 339.96 78.71C340.397 78.7343 340.832 78.63 341.21 78.41C341.356 78.314 341.475 78.1813 341.554 78.0251C341.633 77.8689 341.669 77.6948 341.66 77.52C341.673 77.2493 341.587 76.9831 341.42 76.77C341.226 76.5564 340.987 76.389 340.72 76.28C340.274 76.0823 339.817 75.912 339.35 75.77C338.841 75.6128 338.348 75.4051 337.88 75.15C337.505 74.9424 337.186 74.6474 336.95 74.29C336.708 73.8973 336.589 73.4409 336.61 72.98C336.587 72.6026 336.656 72.2254 336.811 71.8805C336.966 71.5357 337.203 71.2336 337.5 71C338.234 70.4634 339.133 70.2015 340.04 70.26C340.578 70.2595 341.115 70.3199 341.64 70.44C342.12 70.5449 342.589 70.6956 343.04 70.89L342.88 72.52C342.396 72.2764 341.891 72.0789 341.37 71.93C340.907 71.8073 340.429 71.7435 339.95 71.74C339.509 71.7131 339.069 71.8101 338.68 72.02C338.536 72.1085 338.42 72.2343 338.342 72.384C338.265 72.5338 338.229 72.7017 338.24 72.87C338.23 73.1126 338.308 73.3508 338.46 73.54C338.631 73.7308 338.843 73.8811 339.08 73.98C339.462 74.1408 339.853 74.281 340.25 74.4C341.118 74.6293 341.93 75.0306 342.64 75.58C342.898 75.8097 343.101 76.0942 343.234 76.4126C343.367 76.731 343.427 77.0753 343.41 77.42C343.416 77.7845 343.344 78.1462 343.2 78.4808C343.055 78.8153 342.84 79.1151 342.57 79.36C341.748 79.9618 340.735 80.2428 339.72 80.15C339.143 80.1659 338.566 80.1156 338 80Z"
            fill="#090909"
        />
        <path
            d="M350.09 70.46H353.43C354.29 70.4101 355.14 70.6651 355.83 71.18C356.13 71.4496 356.365 71.7844 356.516 72.1589C356.667 72.5334 356.73 72.9374 356.7 73.34C356.723 73.9128 356.577 74.4797 356.28 74.97C355.973 75.4048 355.555 75.75 355.07 75.97L357.2 79.97H355.4L353.54 76.37H351.69V80H350.09V70.46ZM353.09 75.02C353.612 75.0633 354.131 74.9138 354.55 74.6C354.708 74.4461 354.832 74.2605 354.913 74.0554C354.994 73.8503 355.03 73.6303 355.02 73.41C355.02 72.34 354.39 71.81 353.13 71.81H351.65V75L353.09 75.02Z"
            fill="#090909"
        />
        <path d="M364.49 77.6H361L360.13 80H358.56L362 70.46H363.55L366.88 80H365.32L364.49 77.6ZM363.99 76.2L362.73 72.59L361.45 76.2H363.99Z" fill="#090909" />
        <path
            d="M370.71 79.54C369.985 79.1408 369.391 78.5399 369 77.81C368.586 77.0058 368.37 76.1145 368.37 75.21C368.37 74.3055 368.586 73.4141 369 72.61C369.406 71.8817 370.009 71.2822 370.74 70.88C371.518 70.4667 372.389 70.2569 373.27 70.27C373.721 70.2682 374.171 70.3185 374.61 70.42C375.005 70.5108 375.388 70.6484 375.75 70.83L375.59 72.32C374.86 71.9657 374.061 71.7779 373.25 71.77C372.649 71.7484 372.056 71.9012 371.54 72.21C371.064 72.4995 370.684 72.9242 370.45 73.43C370.201 73.9899 370.078 74.5975 370.09 75.21C370.079 75.8257 370.201 76.4365 370.45 77C370.673 77.504 371.042 77.9291 371.51 78.22C372.027 78.5262 372.62 78.6788 373.22 78.66C373.627 78.664 374.033 78.6203 374.43 78.53C374.828 78.4289 375.217 78.2917 375.59 78.12L375.75 79.6C374.957 79.9785 374.088 80.1701 373.21 80.16C372.337 80.1752 371.475 79.9614 370.71 79.54Z"
            fill="#090909"
        />
        <path d="M378.34 70.46H379.92V80H378.34V70.46ZM380.05 74.94L383.57 70.46H385.43L381.87 74.93L385.44 79.93H383.57L380.05 74.94Z" fill="#090909" />
        <path d="M32.83 66.27L0 75.07V20.12L32.84 11.33L32.83 66.27Z" fill="#DE3D31" />
        <path d="M75.09 0V65.01L42.23 73.81V8.8L75.06 0.01L75.09 0Z" fill="#DE3D31" />
    </g>
    <defs>
        <clipPath id="clip0_6_171">
            <rect width="386.35" height="80.16" fill="white" />
        </clipPath>
    </defs>
</svg>