<svg width="32" height="32" viewBox="0 0 32 32" xmlns="http://www.w3.org/2000/svg">
<path d="M15.8147 3.18667C16.4599 2.75675 17.2161 2.52358 17.9914 2.51554C18.7666 2.50749 19.5275 2.7249 20.1814 3.14134L25.7201 6.66667H28.0001C28.3537 6.66667 28.6928 6.80714 28.9429 7.05719C29.1929 7.30724 29.3334 7.64638 29.3334 8V20C29.3334 20.3536 29.1929 20.6928 28.9429 20.9428C28.6928 21.1929 28.3537 21.3333 28.0001 21.3333H25.9734C26.0162 21.9826 25.8788 22.6311 25.5765 23.2072C25.2742 23.7834 24.8186 24.2649 24.2601 24.5987L17.4694 28.6733C17.0522 28.9235 16.5744 29.0547 16.0879 29.0529C15.6014 29.051 15.1247 28.916 14.7094 28.6627C14.2416 29.076 13.6437 29.3121 13.0197 29.3299C12.3957 29.3477 11.7853 29.146 11.2947 28.76L4.44142 23.3747C3.96256 22.9986 3.62673 22.4701 3.4897 21.8768C3.35266 21.2836 3.42266 20.6613 3.68808 20.1133C3.36969 19.8637 3.11227 19.5449 2.93533 19.1811C2.75838 18.8172 2.66653 18.4179 2.66675 18.0133V8C2.66675 7.64638 2.80722 7.30724 3.05727 7.05719C3.30732 6.80714 3.64646 6.66667 4.00008 6.66667H10.5961L15.8147 3.18667ZM5.56408 18.1947L6.48675 17.388C7.27526 16.6983 8.30289 16.3454 9.34879 16.4052C10.3947 16.4651 11.3754 16.9328 12.0801 17.708L15.6827 21.6707C16.2477 22.2921 16.6027 23.0756 16.6975 23.9101C16.7923 24.7446 16.622 25.5877 16.2107 26.32L22.8894 22.3133C23.0641 22.2083 23.1967 22.0456 23.2643 21.8534C23.332 21.6611 23.3305 21.4513 23.2601 21.26L17.3574 12.996C17.1958 12.7695 16.9673 12.5993 16.7041 12.5091C16.4408 12.419 16.156 12.4135 15.8894 12.4933L12.5747 13.4867C11.883 13.6941 11.148 13.7105 10.4478 13.534C9.74752 13.3574 9.10811 12.9946 8.59742 12.484L8.20675 12.0947C7.85201 11.7407 7.60439 11.2937 7.49235 10.8052C7.38032 10.3167 7.40841 9.80656 7.57341 9.33334H5.33342V18.0133L5.56408 18.1947ZM18.7507 5.392C18.5325 5.25295 18.2785 5.18042 18.0197 5.18327C17.7609 5.18611 17.5086 5.26419 17.2934 5.408L10.0934 10.208L10.4827 10.5987C10.6532 10.7689 10.8665 10.8897 11.1001 10.9484C11.3337 11.0071 11.5788 11.0014 11.8094 10.932L15.1227 9.93867C15.9223 9.69892 16.7767 9.71528 17.5665 9.98546C18.3562 10.2556 19.0416 10.7661 19.5267 11.4453L24.6867 18.6667H26.6667V9.33334H25.7214C25.2141 9.33327 24.7173 9.18849 24.2894 8.916L18.7494 5.39067L18.7507 5.392ZM8.24142 19.3933L6.08675 21.2787L12.9401 26.664L13.8801 25.0213C14.0198 24.7767 14.0783 24.4941 14.0474 24.214C14.0165 23.934 13.8977 23.671 13.7081 23.4627L10.1067 19.5C9.87186 19.2417 9.54506 19.0859 9.19653 19.066C8.84801 19.046 8.50423 19.1636 8.24142 19.3933Z"/>
</svg>
