<svg viewBox="0 0 32 32" fill="none" xmlns="http://www.w3.org/2000/svg">
<path d="M22.7787 21.0827C24.0325 19.7579 24.8707 18.0947 25.1896 16.2986C25.5085 14.5026 25.2941 12.6525 24.5729 10.9771C23.8518 9.30156 22.6555 7.87412 21.1318 6.87115C19.6082 5.86819 17.8241 5.33367 16 5.33367C14.1759 5.33367 12.3918 5.86819 10.8682 6.87115C9.34455 7.87412 8.14823 9.30156 7.42706 10.9771C6.7059 12.6525 6.49151 14.5026 6.8104 16.2986C7.12928 18.0947 7.96746 19.7579 9.22134 21.0827C9.94089 19.9345 10.9405 18.988 12.1262 18.3322C13.312 17.6763 14.645 17.3326 16 17.3333C17.355 17.3326 18.688 17.6763 19.8738 18.3322C21.0595 18.988 22.0591 19.9345 22.7787 21.0827ZM16 31.6373L7.51467 23.152C5.83646 21.4738 4.69358 19.3356 4.23057 17.0078C3.76756 14.68 4.00521 12.2672 4.91347 10.0745C5.82172 7.88184 7.35979 6.0077 9.33318 4.68913C11.3066 3.37056 13.6266 2.66678 16 2.66678C18.3734 2.66678 20.6934 3.37056 22.6668 4.68913C24.6402 6.0077 26.1783 7.88184 27.0865 10.0745C27.9948 12.2672 28.2325 14.68 27.7694 17.0078C27.3064 19.3356 26.1636 21.4738 24.4853 23.152L16 31.6373ZM16 16C14.9391 16 13.9217 15.5786 13.1716 14.8284C12.4214 14.0783 12 13.0609 12 12C12 10.9391 12.4214 9.92173 13.1716 9.17158C13.9217 8.42144 14.9391 8.00001 16 8.00001C17.0609 8.00001 18.0783 8.42144 18.8284 9.17158C19.5786 9.92173 20 10.9391 20 12C20 13.0609 19.5786 14.0783 18.8284 14.8284C18.0783 15.5786 17.0609 16 16 16Z"/>
</svg>
