<svg viewBox="0 0 32 32" fill="none" xmlns="http://www.w3.org/2000/svg">
    <path d="M28 20L20 27.9947L5.336 28C4.98331 28.0014 4.64449 27.8628 4.39398 27.6145C4.14347 27.3662 4.00176 27.0287 4 26.676V5.324C4 4.59333 4.59333 4 5.324 4H26.676C27.4067 4 28 4.608 28 5.336V20ZM25.3333 6.66667H6.66667V25.3333H17.3333V18.6667C17.3334 18.3401 17.4533 18.0249 17.6703 17.7808C17.8873 17.5368 18.1863 17.3809 18.5107 17.3427L18.6667 17.3333L25.3333 17.332V6.66667ZM24.228 19.9987L20 20V24.2253L24.228 19.9987Z">
</svg>