<svg viewBox="0 0 32 32" fill="none" xmlns="http://www.w3.org/2000/svg">
    <path d="M14.6667 2.66666C21.2907 2.66666 26.6667 8.04266 26.6667 14.6667C26.6667 21.2907 21.2907 26.6667 14.6667 26.6667C8.04275 26.6667 2.66675 21.2907 2.66675 14.6667C2.66675 8.04266 8.04275 2.66666 14.6667 2.66666ZM14.6667 24C19.8227 24 24.0001 19.8227 24.0001 14.6667C24.0001 9.51066 19.8227 5.33332 14.6667 5.33332C9.51075 5.33332 5.33341 9.51066 5.33341 14.6667C5.33341 19.8227 9.51075 24 14.6667 24ZM25.9801 24.0947L29.7521 27.8653L27.8654 29.752L24.0947 25.98L25.9801 24.0947Z"/>
</svg>