<svg width="32" height="32" viewBox="0 0 32 32" xmlns="http://www.w3.org/2000/svg">
<path d="M15.9999 1.33334L28.6666 8.66668V23.3333L15.9999 30.6667L3.33325 23.3333V8.66668L15.9999 1.33334ZM15.9999 20C17.0608 20 18.0782 19.5786 18.8283 18.8284C19.5785 18.0783 19.9999 17.0609 19.9999 16C19.9999 14.9391 19.5785 13.9217 18.8283 13.1716C18.0782 12.4214 17.0608 12 15.9999 12C14.9391 12 13.9216 12.4214 13.1715 13.1716C12.4213 13.9217 11.9999 14.9391 11.9999 16C11.9999 17.0609 12.4213 18.0783 13.1715 18.8284C13.9216 19.5786 14.9391 20 15.9999 20Z"/>
</svg>
